<svg width="816" height="306" viewBox="0 0 816 306" fill="none" xmlns="http://www.w3.org/2000/svg">
<path d="M34.87 71.24C39.1967 71.24 42.57 70.47 44.99 68.93C47.41 67.3167 48.62 65.08 48.62 62.22C48.62 60.1667 47.85 58.48 46.31 57.16C44.77 55.84 42.7533 54.8133 40.26 54.08C37.84 53.3467 35.1267 52.6867 32.12 52.1C29.1867 51.44 26.2167 50.6333 23.21 49.68C20.2767 48.6533 17.5633 47.37 15.07 45.83C12.65 44.2167 10.67 41.9433 9.13 39.01C7.59 36.0033 6.82 32.4467 6.82 28.34C6.82 21.52 9.38667 15.8 14.52 11.18C19.6533 6.56 26.5833 4.25 35.31 4.25C44.11 4.25 51.0767 6.74333 56.21 11.73C61.4167 16.7167 64.13 22.9133 64.35 30.32H48.62C48.4733 26.8 47.19 23.9767 44.77 21.85C42.4233 19.65 39.1967 18.55 35.09 18.55C31.35 18.55 28.3433 19.3933 26.07 21.08C23.7967 22.6933 22.66 24.7833 22.66 27.35C22.66 29.4767 23.43 31.2 24.97 32.52C26.51 33.84 28.5267 34.8667 31.02 35.6C33.5133 36.3333 36.2633 37.03 39.27 37.69C42.2767 38.2767 45.2833 39.0833 48.29 40.11C51.2967 41.1367 54.0467 42.4567 56.54 44.07C59.0333 45.61 61.05 47.8833 62.59 50.89C64.13 53.8967 64.9 57.49 64.9 61.67C64.9 68.71 62.04 74.4667 56.32 78.94C50.6733 83.34 43.23 85.54 33.99 85.54C28.7833 85.54 24.2 84.8067 20.24 83.34C16.28 81.8 13.1633 79.7467 10.89 77.18C8.61667 74.6133 6.89333 71.8267 5.72 68.82C4.62 65.8133 3.99667 62.6233 3.85 59.25H19.69C19.91 62.6967 21.3033 65.5567 23.87 67.83C26.4367 70.1033 30.1033 71.24 34.87 71.24ZM128.454 59.69H86.6542C87.1676 63.65 88.6342 66.6933 91.0542 68.82C93.4742 70.8733 96.6642 71.9 100.624 71.9C103.118 71.9 105.354 71.3867 107.334 70.36C109.388 69.26 110.854 67.6833 111.734 65.63H127.464C125.778 71.4967 122.441 76.2633 117.454 79.93C112.541 83.5233 106.784 85.32 100.184 85.32C91.6776 85.32 84.7109 82.4967 79.2842 76.85C73.8576 71.2033 71.1442 63.9433 71.1442 55.07C71.1442 46.49 73.8576 39.34 79.2842 33.62C84.7109 27.9 91.6409 25.04 100.074 25.04C108.508 25.04 115.364 27.9 120.644 33.62C125.998 39.2667 128.674 46.4167 128.674 55.07L128.454 59.69ZM99.9642 37.58C96.4442 37.58 93.5476 38.57 91.2742 40.55C89.0009 42.4567 87.5342 45.0967 86.8742 48.47H113.054C112.468 45.17 111.038 42.53 108.764 40.55C106.491 38.57 103.558 37.58 99.9642 37.58ZM169.587 25.92V40.55C168.487 40.33 167.461 40.22 166.507 40.22C161.887 40.22 158.404 41.43 156.057 43.85C153.784 46.27 152.647 50.0833 152.647 55.29V84H137.027V26.36H151.437V33.84C154.737 28.4867 160.164 25.81 167.717 25.81L169.587 25.92ZM190.492 16.24C188.732 18 186.459 18.88 183.672 18.88C180.886 18.88 178.612 18 176.852 16.24C175.092 14.48 174.212 12.2433 174.212 9.52999C174.212 6.81666 175.092 4.58 176.852 2.82C178.612 0.986665 180.886 0.0699987 183.672 0.0699987C186.459 0.0699987 188.732 0.986665 190.492 2.82C192.252 4.58 193.132 6.81666 193.132 9.52999C193.132 12.2433 192.252 14.48 190.492 16.24ZM175.862 84V26.36H191.482V84H175.862ZM252.143 76.63C246.57 82.4233 239.273 85.32 230.253 85.32C221.233 85.32 213.937 82.4233 208.363 76.63C202.79 70.7633 200.003 63.6133 200.003 55.18C200.003 46.7467 202.79 39.6333 208.363 33.84C213.937 27.9733 221.233 25.04 230.253 25.04C239.273 25.04 246.57 27.9733 252.143 33.84C257.717 39.6333 260.503 46.7467 260.503 55.18C260.503 63.6133 257.717 70.7633 252.143 76.63ZM219.693 43.19C216.98 46.1233 215.623 50.12 215.623 55.18C215.623 60.24 216.98 64.2367 219.693 67.17C222.48 70.1033 226 71.57 230.253 71.57C234.507 71.57 237.99 70.1033 240.703 67.17C243.49 64.2367 244.883 60.24 244.883 55.18C244.883 50.12 243.49 46.1233 240.703 43.19C237.99 40.2567 234.507 38.79 230.253 38.79C226 38.79 222.48 40.2567 219.693 43.19ZM314.212 79.16C309.812 83.2667 303.285 85.32 294.632 85.32C285.978 85.32 279.452 83.2667 275.052 79.16C270.652 75.0533 268.452 68.4533 268.452 59.36V26.36H284.072V59.58C284.072 67.4267 287.592 71.35 294.632 71.35C301.672 71.35 305.192 67.4267 305.192 59.58V26.36H320.812V59.36C320.812 68.4533 318.612 75.0533 314.212 79.16ZM352.789 85.32C337.096 85.32 328.772 78.6467 327.819 65.3H343.659C343.806 67.4267 344.649 69.2233 346.189 70.69C347.802 72.0833 350.149 72.78 353.229 72.78C356.162 72.78 358.399 72.3033 359.939 71.35C361.479 70.3967 362.249 69.1133 362.249 67.5C362.249 65.74 361.149 64.4567 358.949 63.65C356.749 62.77 354.072 62.0733 350.919 61.56C347.839 61.0467 344.722 60.35 341.569 59.47C338.416 58.59 335.739 56.8667 333.539 54.3C331.339 51.7333 330.239 48.3233 330.239 44.07C330.239 38.7167 332.366 34.2067 336.619 30.54C340.872 26.8733 346.446 25.04 353.339 25.04C361.186 25.04 367.016 27.02 370.829 30.98C374.642 34.94 376.696 39.45 376.989 44.51H361.919C361.772 42.53 360.929 40.88 359.389 39.56C357.922 38.24 355.869 37.58 353.229 37.58C350.736 37.58 348.792 38.13 347.399 39.23C346.006 40.2567 345.309 41.5767 345.309 43.19C345.309 44.95 346.409 46.2333 348.609 47.04C350.809 47.8467 353.449 48.5067 356.529 49.02C359.682 49.46 362.799 50.12 365.879 51C369.032 51.88 371.709 53.64 373.909 56.28C376.109 58.92 377.209 62.44 377.209 66.84C377.209 72.1933 375.009 76.63 370.609 80.15C366.282 83.5967 360.342 85.32 352.789 85.32ZM429.211 38.68V84H413.591V38.68H405.781V26.36H413.591V12.06H429.211V26.36H437.681V38.68H429.211ZM476.238 25.92V40.55C475.138 40.33 474.111 40.22 473.158 40.22C468.538 40.22 465.055 41.43 462.708 43.85C460.435 46.27 459.298 50.0833 459.298 55.29V84H443.678V26.36H458.088V33.84C461.388 28.4867 466.815 25.81 474.368 25.81L476.238 25.92ZM521.183 26.36H535.593V84H521.183V76.96C517.369 82.5333 511.283 85.32 502.923 85.32C494.783 85.32 488.329 82.46 483.563 76.74C478.796 71.02 476.413 63.8333 476.413 55.18C476.413 46.5267 478.796 39.34 483.563 33.62C488.329 27.9 494.783 25.04 502.923 25.04C511.283 25.04 517.369 27.8267 521.183 33.4V26.36ZM516.453 66.95C519.093 63.87 520.413 59.9467 520.413 55.18C520.413 50.4133 519.093 46.49 516.453 43.41C513.886 40.33 510.476 38.79 506.223 38.79C501.969 38.79 498.523 40.33 495.883 43.41C493.316 46.49 492.033 50.4133 492.033 55.18C492.033 59.9467 493.316 63.87 495.883 66.95C498.523 70.03 501.969 71.57 506.223 71.57C510.476 71.57 513.886 70.03 516.453 66.95ZM552.177 76.74C546.75 70.9467 544.037 63.76 544.037 55.18C544.037 46.6 546.75 39.45 552.177 33.73C557.677 27.9367 564.607 25.04 572.967 25.04C581.18 25.04 587.633 27.35 592.327 31.97C597.093 36.59 599.807 41.76 600.467 47.48H584.407C583.82 44.9867 582.463 42.9333 580.337 41.32C578.21 39.7067 575.717 38.9 572.857 38.9C568.75 38.9 565.523 40.4033 563.177 43.41C560.83 46.3433 559.657 50.2667 559.657 55.18C559.657 60.0933 560.83 64.0533 563.177 67.06C565.523 69.9933 568.75 71.46 572.857 71.46C575.717 71.46 578.21 70.6533 580.337 69.04C582.463 67.4267 583.82 65.3733 584.407 62.88H600.467C599.807 68.6 597.093 73.77 592.327 78.39C587.633 83.01 581.18 85.32 572.967 85.32C564.607 85.32 557.677 82.46 552.177 76.74ZM644.724 26.36H664.304L642.744 50.89L665.844 84H647.364L632.404 61.23L623.714 71.13V84H608.094V1.49999H623.714V52.54L644.724 26.36ZM683.258 16.24C681.498 18 679.225 18.88 676.438 18.88C673.651 18.88 671.378 18 669.618 16.24C667.858 14.48 666.978 12.2433 666.978 9.52999C666.978 6.81666 667.858 4.58 669.618 2.82C671.378 0.986665 673.651 0.0699987 676.438 0.0699987C679.225 0.0699987 681.498 0.986665 683.258 2.82C685.018 4.58 685.898 6.81666 685.898 9.52999C685.898 12.2433 685.018 14.48 683.258 16.24ZM668.628 84V26.36H684.248V84H668.628ZM710.809 26.36V33.4C713.816 27.8267 719.536 25.04 727.969 25.04C734.789 25.04 740.032 27.13 743.699 31.31C747.366 35.4167 749.199 40.99 749.199 48.03V84H733.579V49.79C733.579 42.2367 730.316 38.46 723.789 38.46C720.049 38.46 717.152 39.5967 715.099 41.87C713.046 44.07 712.019 47.1133 712.019 51V84H696.399V26.36H710.809ZM801.5 33.4V26.36H815.91V81.8C815.91 89.5 813.417 95.8067 808.43 100.72C803.444 105.633 796.66 108.09 788.08 108.09C779.94 108.09 773.597 105.927 769.05 101.6C764.577 97.2733 762.084 92.4333 761.57 87.08H777.19C778.217 92.14 781.92 94.67 788.3 94.67C792.187 94.67 795.157 93.68 797.21 91.7C799.264 89.72 800.29 86.97 800.29 83.45V75.42C796.55 80.4067 790.94 82.9 783.46 82.9C775.614 82.9 769.27 80.15 764.43 74.65C759.59 69.0767 757.17 62.1833 757.17 53.97C757.17 45.7567 759.59 38.9 764.43 33.4C769.27 27.8267 775.614 25.04 783.46 25.04C791.674 25.04 797.687 27.8267 801.5 33.4ZM796.88 64.97C799.447 62.1833 800.73 58.5167 800.73 53.97C800.73 49.4233 799.447 45.7567 796.88 42.97C794.314 40.1833 790.94 38.79 786.76 38.79C782.58 38.79 779.207 40.1833 776.64 42.97C774.074 45.7567 772.79 49.4233 772.79 53.97C772.79 58.5167 774.074 62.1833 776.64 64.97C779.207 67.7567 782.58 69.15 786.76 69.15C790.94 69.15 794.314 67.7567 796.88 64.97ZM24.97 136.36H33.88V148.68H24.97V194H9.35V148.68H1.1V136.36H9.35V131.74C9.35 124.993 11.0733 119.933 14.52 116.56C18.04 113.187 22.8433 111.5 28.93 111.5L33.55 111.72V125.14C33.11 125.067 32.3033 125.03 31.13 125.03C27.0233 125.03 24.97 127.157 24.97 131.41V136.36ZM88.1573 186.63C82.5839 192.423 75.2873 195.32 66.2673 195.32C57.2473 195.32 49.9506 192.423 44.3773 186.63C38.8039 180.763 36.0173 173.613 36.0173 165.18C36.0173 156.747 38.8039 149.633 44.3773 143.84C49.9506 137.973 57.2473 135.04 66.2673 135.04C75.2873 135.04 82.5839 137.973 88.1573 143.84C93.7306 149.633 96.5173 156.747 96.5173 165.18C96.5173 173.613 93.7306 180.763 88.1573 186.63ZM55.7073 153.19C52.9939 156.123 51.6373 160.12 51.6373 165.18C51.6373 170.24 52.9939 174.237 55.7073 177.17C58.4939 180.103 62.0139 181.57 66.2673 181.57C70.5206 181.57 74.0039 180.103 76.7173 177.17C79.5039 174.237 80.8973 170.24 80.8973 165.18C80.8973 160.12 79.5039 156.123 76.7173 153.19C74.0039 150.257 70.5206 148.79 66.2673 148.79C62.0139 148.79 58.4939 150.257 55.7073 153.19ZM137.576 135.92V150.55C136.476 150.33 135.449 150.22 134.496 150.22C129.876 150.22 126.392 151.43 124.046 153.85C121.772 156.27 120.636 160.083 120.636 165.29V194H105.016V136.36H119.426V143.84C122.726 138.487 128.152 135.81 135.706 135.81L137.576 135.92ZM190.685 195.32C174.992 195.32 166.668 188.647 165.715 175.3H181.555C181.702 177.427 182.545 179.223 184.085 180.69C185.698 182.083 188.045 182.78 191.125 182.78C194.058 182.78 196.295 182.303 197.835 181.35C199.375 180.397 200.145 179.113 200.145 177.5C200.145 175.74 199.045 174.457 196.845 173.65C194.645 172.77 191.968 172.073 188.815 171.56C185.735 171.047 182.618 170.35 179.465 169.47C176.312 168.59 173.635 166.867 171.435 164.3C169.235 161.733 168.135 158.323 168.135 154.07C168.135 148.717 170.262 144.207 174.515 140.54C178.768 136.873 184.342 135.04 191.235 135.04C199.082 135.04 204.912 137.02 208.725 140.98C212.538 144.94 214.592 149.45 214.885 154.51H199.815C199.668 152.53 198.825 150.88 197.285 149.56C195.818 148.24 193.765 147.58 191.125 147.58C188.632 147.58 186.688 148.13 185.295 149.23C183.902 150.257 183.205 151.577 183.205 153.19C183.205 154.95 184.305 156.233 186.505 157.04C188.705 157.847 191.345 158.507 194.425 159.02C197.578 159.46 200.695 160.12 203.775 161C206.928 161.88 209.605 163.64 211.805 166.28C214.005 168.92 215.105 172.44 215.105 176.84C215.105 182.193 212.905 186.63 208.505 190.15C204.178 193.597 198.238 195.32 190.685 195.32ZM276.812 169.69H235.012C235.526 173.65 236.992 176.693 239.412 178.82C241.832 180.873 245.022 181.9 248.982 181.9C251.476 181.9 253.712 181.387 255.692 180.36C257.746 179.26 259.212 177.683 260.092 175.63H275.822C274.136 181.497 270.799 186.263 265.812 189.93C260.899 193.523 255.142 195.32 248.542 195.32C240.036 195.32 233.069 192.497 227.642 186.85C222.216 181.203 219.502 173.943 219.502 165.07C219.502 156.49 222.216 149.34 227.642 143.62C233.069 137.9 239.999 135.04 248.432 135.04C256.866 135.04 263.722 137.9 269.002 143.62C274.356 149.267 277.032 156.417 277.032 165.07L276.812 169.69ZM248.322 147.58C244.802 147.58 241.906 148.57 239.632 150.55C237.359 152.457 235.892 155.097 235.232 158.47H261.412C260.826 155.17 259.396 152.53 257.122 150.55C254.849 148.57 251.916 147.58 248.322 147.58ZM317.946 135.92V150.55C316.846 150.33 315.819 150.22 314.866 150.22C310.246 150.22 306.762 151.43 304.416 153.85C302.142 156.27 301.006 160.083 301.006 165.29V194H285.386V136.36H299.796V143.84C303.096 138.487 308.522 135.81 316.076 135.81L317.946 135.92ZM338.851 126.24C337.091 128 334.817 128.88 332.031 128.88C329.244 128.88 326.971 128 325.211 126.24C323.451 124.48 322.571 122.243 322.571 119.53C322.571 116.817 323.451 114.58 325.211 112.82C326.971 110.987 329.244 110.07 332.031 110.07C334.817 110.07 337.091 110.987 338.851 112.82C340.611 114.58 341.491 116.817 341.491 119.53C341.491 122.243 340.611 124.48 338.851 126.24ZM324.221 194V136.36H339.841V194H324.221ZM400.501 186.63C394.928 192.423 387.631 195.32 378.611 195.32C369.591 195.32 362.295 192.423 356.721 186.63C351.148 180.763 348.361 173.613 348.361 165.18C348.361 156.747 351.148 149.633 356.721 143.84C362.295 137.973 369.591 135.04 378.611 135.04C387.631 135.04 394.928 137.973 400.501 143.84C406.075 149.633 408.861 156.747 408.861 165.18C408.861 173.613 406.075 180.763 400.501 186.63ZM368.051 153.19C365.338 156.123 363.981 160.12 363.981 165.18C363.981 170.24 365.338 174.237 368.051 177.17C370.838 180.103 374.358 181.57 378.611 181.57C382.865 181.57 386.348 180.103 389.061 177.17C391.848 174.237 393.241 170.24 393.241 165.18C393.241 160.12 391.848 156.123 389.061 153.19C386.348 150.257 382.865 148.79 378.611 148.79C374.358 148.79 370.838 150.257 368.051 153.19ZM462.57 189.16C458.17 193.267 451.643 195.32 442.99 195.32C434.336 195.32 427.81 193.267 423.41 189.16C419.01 185.053 416.81 178.453 416.81 169.36V136.36H432.43V169.58C432.43 177.427 435.95 181.35 442.99 181.35C450.03 181.35 453.55 177.427 453.55 169.58V136.36H469.17V169.36C469.17 178.453 466.97 185.053 462.57 189.16ZM501.147 195.32C485.454 195.32 477.13 188.647 476.177 175.3H492.017C492.164 177.427 493.007 179.223 494.547 180.69C496.16 182.083 498.507 182.78 501.587 182.78C504.52 182.78 506.757 182.303 508.297 181.35C509.837 180.397 510.607 179.113 510.607 177.5C510.607 175.74 509.507 174.457 507.307 173.65C505.107 172.77 502.43 172.073 499.277 171.56C496.197 171.047 493.08 170.35 489.927 169.47C486.774 168.59 484.097 166.867 481.897 164.3C479.697 161.733 478.597 158.323 478.597 154.07C478.597 148.717 480.724 144.207 484.977 140.54C489.23 136.873 494.804 135.04 501.697 135.04C509.544 135.04 515.374 137.02 519.187 140.98C523 144.94 525.054 149.45 525.347 154.51H510.277C510.13 152.53 509.287 150.88 507.747 149.56C506.28 148.24 504.227 147.58 501.587 147.58C499.094 147.58 497.15 148.13 495.757 149.23C494.364 150.257 493.667 151.577 493.667 153.19C493.667 154.95 494.767 156.233 496.967 157.04C499.167 157.847 501.807 158.507 504.887 159.02C508.04 159.46 511.157 160.12 514.237 161C517.39 161.88 520.067 163.64 522.267 166.28C524.467 168.92 525.567 172.44 525.567 176.84C525.567 182.193 523.367 186.63 518.967 190.15C514.64 193.597 508.7 195.32 501.147 195.32ZM600.669 143.4V136.36H615.079V191.8C615.079 199.5 612.585 205.807 607.599 210.72C602.612 215.633 595.829 218.09 587.249 218.09C579.109 218.09 572.765 215.927 568.219 211.6C563.745 207.273 561.252 202.433 560.739 197.08H576.359C577.385 202.14 581.089 204.67 587.469 204.67C591.355 204.67 594.325 203.68 596.379 201.7C598.432 199.72 599.459 196.97 599.459 193.45V185.42C595.719 190.407 590.109 192.9 582.629 192.9C574.782 192.9 568.439 190.15 563.599 184.65C558.759 179.077 556.339 172.183 556.339 163.97C556.339 155.757 558.759 148.9 563.599 143.4C568.439 137.827 574.782 135.04 582.629 135.04C590.842 135.04 596.855 137.827 600.669 143.4ZM596.049 174.97C598.615 172.183 599.899 168.517 599.899 163.97C599.899 159.423 598.615 155.757 596.049 152.97C593.482 150.183 590.109 148.79 585.929 148.79C581.749 148.79 578.375 150.183 575.809 152.97C573.242 155.757 571.959 159.423 571.959 163.97C571.959 168.517 573.242 172.183 575.809 174.97C578.375 177.757 581.749 179.15 585.929 179.15C590.109 179.15 593.482 177.757 596.049 174.97ZM632.566 216.88L642.246 193.01L619.476 136.36H636.086L649.946 174.86L663.916 136.36H680.196L647.966 216.88H632.566ZM736.82 161.22V194H721.2V159.79C721.2 152.237 718.12 148.46 711.96 148.46C708.366 148.46 705.58 149.56 703.6 151.76C701.693 153.96 700.74 157.003 700.74 160.89V194H685.12V136.36H699.53V143.4C702.536 137.827 708.073 135.04 716.14 135.04C723.766 135.04 729.34 137.753 732.86 143.18C737.773 137.753 744.153 135.04 752 135.04C758.746 135.04 763.916 137.13 767.51 141.31C771.103 145.49 772.9 151.063 772.9 158.03V194H757.28V159.79C757.28 152.237 754.2 148.46 748.04 148.46C744.373 148.46 741.586 149.597 739.68 151.87C737.773 154.07 736.82 157.187 736.82 161.22ZM59.07 304L47.41 268.36H47.19L35.42 304H20.79L0.66 246.36H16.83L28.38 284.31L40.26 246.36H54.34L66.33 284.53L77.99 246.36H93.83L73.7 304H59.07ZM146.273 296.63C140.699 302.423 133.403 305.32 124.383 305.32C115.363 305.32 108.066 302.423 102.493 296.63C96.9192 290.763 94.1325 283.613 94.1325 275.18C94.1325 266.747 96.9192 259.633 102.493 253.84C108.066 247.973 115.363 245.04 124.383 245.04C133.403 245.04 140.699 247.973 146.273 253.84C151.846 259.633 154.633 266.747 154.633 275.18C154.633 283.613 151.846 290.763 146.273 296.63ZM113.823 263.19C111.109 266.123 109.753 270.12 109.753 275.18C109.753 280.24 111.109 284.237 113.823 287.17C116.609 290.103 120.129 291.57 124.383 291.57C128.636 291.57 132.119 290.103 134.833 287.17C137.619 284.237 139.013 280.24 139.013 275.18C139.013 270.12 137.619 266.123 134.833 263.19C132.119 260.257 128.636 258.79 124.383 258.79C120.129 258.79 116.609 260.257 113.823 263.19ZM195.691 245.92V260.55C194.591 260.33 193.564 260.22 192.611 260.22C187.991 260.22 184.508 261.43 182.161 263.85C179.888 266.27 178.751 270.083 178.751 275.29V304H163.131V246.36H177.541V253.84C180.841 248.487 186.268 245.81 193.821 245.81L195.691 245.92ZM238.596 246.36H258.176L236.616 270.89L259.716 304H241.236L226.276 281.23L217.586 291.13V304H201.966V221.5H217.586V272.54L238.596 246.36ZM309.829 296.63C304.255 302.423 296.959 305.32 287.939 305.32C278.919 305.32 271.622 302.423 266.049 296.63C260.475 290.763 257.689 283.613 257.689 275.18C257.689 266.747 260.475 259.633 266.049 253.84C271.622 247.973 278.919 245.04 287.939 245.04C296.959 245.04 304.255 247.973 309.829 253.84C315.402 259.633 318.189 266.747 318.189 275.18C318.189 283.613 315.402 290.763 309.829 296.63ZM277.379 263.19C274.665 266.123 273.309 270.12 273.309 275.18C273.309 280.24 274.665 284.237 277.379 287.17C280.165 290.103 283.685 291.57 287.939 291.57C292.192 291.57 295.675 290.103 298.389 287.17C301.175 284.237 302.569 280.24 302.569 275.18C302.569 270.12 301.175 266.123 298.389 263.19C295.675 260.257 292.192 258.79 287.939 258.79C283.685 258.79 280.165 260.257 277.379 263.19ZM371.897 299.16C367.497 303.267 360.97 305.32 352.317 305.32C343.664 305.32 337.137 303.267 332.737 299.16C328.337 295.053 326.137 288.453 326.137 279.36V246.36H341.757V279.58C341.757 287.427 345.277 291.35 352.317 291.35C359.357 291.35 362.877 287.427 362.877 279.58V246.36H378.497V279.36C378.497 288.453 376.297 295.053 371.897 299.16ZM407.614 258.68V304H391.994V258.68H384.184V246.36H391.994V232.06H407.614V246.36H416.084V258.68H407.614ZM442.542 305.32C426.849 305.32 418.525 298.647 417.572 285.3H433.412C433.559 287.427 434.402 289.223 435.942 290.69C437.555 292.083 439.902 292.78 442.982 292.78C445.915 292.78 448.152 292.303 449.692 291.35C451.232 290.397 452.002 289.113 452.002 287.5C452.002 285.74 450.902 284.457 448.702 283.65C446.502 282.77 443.825 282.073 440.672 281.56C437.592 281.047 434.475 280.35 431.322 279.47C428.169 278.59 425.492 276.867 423.292 274.3C421.092 271.733 419.992 268.323 419.992 264.07C419.992 258.717 422.119 254.207 426.372 250.54C430.625 246.873 436.199 245.04 443.092 245.04C450.939 245.04 456.769 247.02 460.582 250.98C464.395 254.94 466.449 259.45 466.742 264.51H451.672C451.525 262.53 450.682 260.88 449.142 259.56C447.675 258.24 445.622 257.58 442.982 257.58C440.489 257.58 438.545 258.13 437.152 259.23C435.759 260.257 435.062 261.577 435.062 263.19C435.062 264.95 436.162 266.233 438.362 267.04C440.562 267.847 443.202 268.507 446.282 269.02C449.435 269.46 452.552 270.12 455.632 271C458.785 271.88 461.462 273.64 463.662 276.28C465.862 278.92 466.962 282.44 466.962 286.84C466.962 292.193 464.762 296.63 460.362 300.15C456.035 303.597 450.095 305.32 442.542 305.32ZM489.729 302.02C487.749 303.927 485.219 304.88 482.139 304.88C479.059 304.88 476.529 303.927 474.549 302.02C472.569 300.04 471.579 297.51 471.579 294.43C471.579 291.423 472.569 288.93 474.549 286.95C476.529 284.897 479.059 283.87 482.139 283.87C485.146 283.87 487.639 284.897 489.619 286.95C491.673 288.93 492.699 291.423 492.699 294.43C492.699 297.51 491.709 300.04 489.729 302.02Z" fill="#E6E6E6"/>
</svg>
