<svg width="372" height="180" viewBox="0 0 372 180" fill="none" xmlns="http://www.w3.org/2000/svg">
<g clip-path="url(#clip0_5864_20820)">
<path fill-rule="evenodd" clip-rule="evenodd" d="M196.228 135H221.788V0H196.228V135ZM265.431 135H239.871V0H265.431V135ZM293.234 172.44L309.074 133.38L271.814 40.6799H298.994L321.674 103.68L344.534 40.6799H371.174L318.434 172.44H293.234ZM168.381 127.08C161.181 133.8 150.501 137.16 136.341 137.16C122.181 137.16 111.501 133.8 104.301 127.08C97.1015 120.36 93.5015 109.56 93.5015 94.6799V40.6799H119.061V95.0399C119.061 107.88 124.821 114.3 136.341 114.3C147.861 114.3 153.621 107.88 153.621 95.0399V40.6799H179.181V94.6799C179.181 109.56 175.581 120.36 168.381 127.08ZM0 135H26.28V82.2599H82.08V58.14H26.28V31.32H84.78V7.19995H0V135Z" fill="#E6E6E6"/>
</g>
<defs>
<clipPath id="clip0_5864_20820">
<rect width="371.174" height="180" fill="white"/>
</clipPath>
</defs>
</svg>
