<svg width="598" height="180" viewBox="0 0 598 180" fill="none" xmlns="http://www.w3.org/2000/svg">
<g clip-path="url(#clip0_5863_90365)">
<path d="M583.868 63.18V137.34H558.308V63.18H545.528V43.02H558.308V19.62H583.868V43.02H597.728V63.18H583.868Z" fill="#E6E6E6"/>
<path d="M503.772 139.5C478.092 139.5 464.472 128.58 462.912 106.74H488.832C489.072 110.22 490.452 113.16 492.972 115.56C495.612 117.84 499.452 118.98 504.492 118.98C509.292 118.98 512.952 118.2 515.472 116.64C517.992 115.08 519.252 112.98 519.252 110.34C519.252 107.46 517.452 105.36 513.852 104.04C510.252 102.6 505.872 101.46 500.712 100.62C495.672 99.78 490.572 98.64 485.412 97.2C480.252 95.76 475.872 92.94 472.272 88.74C468.672 84.54 466.872 78.96 466.872 72C466.872 63.24 470.352 55.86 477.312 49.86C484.272 43.86 493.392 40.86 504.672 40.86C517.512 40.86 527.052 44.1 533.292 50.58C539.532 57.06 542.892 64.44 543.372 72.72H518.712C518.472 69.48 517.092 66.78 514.572 64.62C512.172 62.46 508.812 61.38 504.492 61.38C500.412 61.38 497.232 62.28 494.952 64.08C492.672 65.76 491.532 67.92 491.532 70.56C491.532 73.44 493.332 75.54 496.932 76.86C500.532 78.18 504.852 79.26 509.892 80.1C515.052 80.82 520.152 81.9 525.192 83.34C530.352 84.78 534.732 87.66 538.332 91.98C541.932 96.3 543.732 102.06 543.732 109.26C543.732 118.02 540.132 125.28 532.932 131.04C525.852 136.68 516.132 139.5 503.772 139.5Z" fill="#E6E6E6"/>
<path d="M442.446 129.42C435.246 136.14 424.566 139.5 410.406 139.5C396.246 139.5 385.566 136.14 378.366 129.42C371.166 122.7 367.566 111.9 367.566 97.02V43.02H393.126V97.38C393.126 110.22 398.886 116.64 410.406 116.64C421.926 116.64 427.686 110.22 427.686 97.38V43.02H453.246V97.02C453.246 111.9 449.646 122.7 442.446 129.42Z" fill="#E6E6E6"/>
<path d="M348.763 26.46C345.883 29.34 342.163 30.78 337.603 30.78C333.043 30.78 329.323 29.34 326.443 26.46C323.563 23.58 322.123 19.92 322.123 15.48C322.123 11.04 323.563 7.37999 326.443 4.5C329.323 1.5 333.043 0 337.603 0C342.163 0 345.883 1.5 348.763 4.5C351.643 7.37999 353.083 11.04 353.083 15.48C353.083 19.92 351.643 23.58 348.763 26.46ZM324.823 174.78V43.02H350.383V174.78H324.823Z" fill="#E6E6E6"/>
<path d="M261.591 63.18V137.34H236.031V63.18H223.251V43.02H236.031V19.62H261.591V43.02H275.451V63.18H261.591Z" fill="#E6E6E6"/>
<path d="M207.004 125.28C197.884 134.76 185.944 139.5 171.184 139.5C156.424 139.5 144.484 134.76 135.364 125.28C126.244 115.68 121.684 103.98 121.684 90.18C121.684 76.38 126.244 64.74 135.364 55.26C144.484 45.66 156.424 40.86 171.184 40.86C185.944 40.86 197.884 45.66 207.004 55.26C216.124 64.74 220.684 76.38 220.684 90.18C220.684 103.98 216.124 115.68 207.004 125.28ZM153.904 70.56C149.464 75.36 147.244 81.9 147.244 90.18C147.244 98.46 149.464 105 153.904 109.8C158.464 114.6 164.224 117 171.184 117C178.144 117 183.844 114.6 188.284 109.8C192.844 105 195.124 98.46 195.124 90.18C195.124 81.9 192.844 75.36 188.284 70.56C183.844 65.76 178.144 63.36 171.184 63.36C164.224 63.36 158.464 65.76 153.904 70.56Z" fill="#E6E6E6"/>
<path d="M25.56 52.92V137.34H0V9.54004H26.46L82.26 93.96V9.54004H107.82V137.34H81.36L25.56 52.92Z" fill="#E6E6E6"/>
</g>
<defs>
<clipPath id="clip0_5863_90365">
<rect width="597.728" height="180" fill="white"/>
</clipPath>
</defs>
</svg>
