<svg width="719" height="180" viewBox="0 0 719 180" fill="none" xmlns="http://www.w3.org/2000/svg">
<g clip-path="url(#clip0_5864_20829)">
<path fill-rule="evenodd" clip-rule="evenodd" d="M53.64 40.5201H39.06V32.4201C39.06 25.4601 42.42 21.9801 49.14 21.9801C51.06 21.9801 52.38 22.0401 53.1 22.1601V0.200094L45.54 -0.159912C35.58 -0.159912 27.72 2.60009 21.96 8.12009C16.32 13.6401 13.5 21.9201 13.5 32.9601V40.5201H0V60.6801H13.5V134.84H39.06V60.6801H53.64V40.5201ZM645.819 50.6001V-0.159912H671.379V134.84H647.799V123.32C641.559 132.44 631.599 137 617.919 137C604.599 137 594.039 132.32 586.239 122.96C578.439 113.6 574.539 101.84 574.539 87.6801C574.539 73.5201 578.439 61.7601 586.239 52.4001C594.039 43.0401 604.599 38.3601 617.919 38.3601C624.159 38.3601 629.679 39.5601 634.479 41.9601C639.399 44.2401 643.179 47.1201 645.819 50.6001ZM640.059 106.94C644.379 101.9 646.539 95.4801 646.539 87.6801C646.539 79.8801 644.379 73.4601 640.059 68.4201C635.859 63.3801 630.279 60.8601 623.319 60.8601C616.359 60.8601 610.719 63.3801 606.399 68.4201C602.199 73.4601 600.099 79.8801 600.099 87.6801C600.099 95.4801 602.199 101.9 606.399 106.94C610.719 111.98 616.359 114.5 623.319 114.5C630.279 114.5 635.859 111.98 640.059 106.94ZM713.457 131.6C710.217 134.72 706.077 136.28 701.037 136.28C695.997 136.28 691.857 134.72 688.617 131.6C685.377 128.36 683.757 124.22 683.757 119.18C683.757 114.26 685.377 110.18 688.617 106.94C691.857 103.58 695.997 101.9 701.037 101.9C705.957 101.9 710.037 103.58 713.277 106.94C716.637 110.18 718.317 114.26 718.317 119.18C718.317 124.22 716.697 128.36 713.457 131.6ZM499.85 95.0601H568.25L568.61 87.5001C568.61 73.3401 564.23 61.6401 555.47 52.4001C546.83 43.0401 535.61 38.3601 521.81 38.3601C508.01 38.3601 496.67 43.0401 487.79 52.4001C478.91 61.7601 474.47 73.4601 474.47 87.5001C474.47 102.02 478.91 113.9 487.79 123.14C496.67 132.38 508.07 137 521.99 137C532.79 137 542.21 134.06 550.25 128.18C558.41 122.18 563.87 114.38 566.63 104.78H540.89C539.45 108.14 537.05 110.72 533.69 112.52C530.45 114.2 526.79 115.04 522.71 115.04C516.23 115.04 511.01 113.36 507.05 110C503.09 106.52 500.69 101.54 499.85 95.0601ZM507.41 63.7401C511.13 60.5001 515.87 58.8801 521.63 58.8801C527.51 58.8801 532.31 60.5001 536.03 63.7401C539.75 66.9801 542.09 71.3001 543.05 76.7001H500.21C501.29 71.1801 503.69 66.8601 507.41 63.7401ZM475.985 39.8001V63.7401C474.185 63.3801 472.505 63.2001 470.945 63.2001C463.385 63.2001 457.685 65.1801 453.845 69.1401C450.125 73.1001 448.265 79.3401 448.265 87.8601V134.84H422.705V40.5201H446.285V52.7601C451.685 44.0001 460.565 39.6201 472.925 39.6201L475.985 39.8001ZM362.818 137C376.978 137 387.658 133.64 394.858 126.92C402.058 120.2 405.658 109.4 405.658 94.52V40.52H380.098V94.88C380.098 107.72 374.338 114.14 362.818 114.14C351.298 114.14 345.538 107.72 345.538 94.88V40.52H319.978V94.52C319.978 109.4 323.578 120.2 330.778 126.92C337.978 133.64 348.658 137 362.818 137ZM299.004 60.6801V134.84H273.444V60.6801H260.664V40.5201H273.444V17.1201H299.004V40.5201H312.864V60.6801H299.004ZM252.246 40.5201H228.666V52.0401C222.426 42.9201 212.466 38.3601 198.786 38.3601C185.466 38.3601 174.906 43.0401 167.106 52.4001C159.306 61.7601 155.406 73.5201 155.406 87.6801C155.406 101.84 159.306 113.6 167.106 122.96C174.906 132.32 185.466 137 198.786 137C212.466 137 222.426 132.44 228.666 123.32V134.84H252.246V40.5201ZM227.406 87.6801C227.406 95.4801 225.246 101.9 220.926 106.94C216.726 111.98 211.146 114.5 204.186 114.5C197.226 114.5 191.586 111.98 187.266 106.94C183.066 101.9 180.966 95.4801 180.966 87.6801C180.966 79.8801 183.066 73.4601 187.266 68.4201C191.586 63.3801 197.226 60.8601 204.186 60.8601C211.146 60.8601 216.726 63.3801 220.926 68.4201C225.246 73.4601 227.406 79.8801 227.406 87.6801ZM149.117 95.0601H80.7174C81.5574 101.54 83.9574 106.52 87.9174 110C91.8774 113.36 97.0974 115.04 103.577 115.04C107.657 115.04 111.317 114.2 114.557 112.52C117.917 110.72 120.317 108.14 121.757 104.78H147.497C144.737 114.38 139.277 122.18 131.117 128.18C123.077 134.06 113.657 137 102.857 137C88.9374 137 77.5374 132.38 68.6574 123.14C59.7774 113.9 55.3374 102.02 55.3374 87.5001C55.3374 73.4601 59.7774 61.7601 68.6574 52.4001C77.5374 43.0401 88.8774 38.3601 102.677 38.3601C116.477 38.3601 127.697 43.0401 136.337 52.4001C145.097 61.6401 149.477 73.3401 149.477 87.5001L149.117 95.0601ZM102.497 58.8801C96.7374 58.8801 91.9974 60.5001 88.2774 63.7401C84.5574 66.8601 82.1574 71.1801 81.0774 76.7001H123.917C122.957 71.3001 120.617 66.9801 116.897 63.7401C113.177 60.5001 108.377 58.8801 102.497 58.8801Z" fill="#A8A9B2"/>
</g>
<defs>
<clipPath id="clip0_5864_20829">
<rect width="718.317" height="180" fill="white"/>
</clipPath>
</defs>
</svg>
