<svg width="381" height="180" viewBox="0 0 381 180" fill="none" xmlns="http://www.w3.org/2000/svg">
<g clip-path="url(#clip0_5863_90376)">
<path d="M375.528 134.12C372.288 137.24 368.148 138.8 363.108 138.8C358.068 138.8 353.928 137.24 350.688 134.12C347.448 130.88 345.828 126.74 345.828 121.7C345.828 116.78 347.448 112.7 350.688 109.46C353.928 106.1 358.068 104.42 363.108 104.42C368.028 104.42 372.108 106.1 375.348 109.46C378.708 112.7 380.388 116.78 380.388 121.7C380.388 126.74 378.768 130.88 375.528 134.12Z" fill="#E6E6E6"/>
<path d="M300.112 139.52C274.432 139.52 260.812 128.6 259.252 106.76H285.172C285.412 110.24 286.792 113.18 289.312 115.58C291.952 117.86 295.792 119 300.832 119C305.632 119 309.292 118.22 311.812 116.66C314.332 115.1 315.592 113 315.592 110.36C315.592 107.48 313.792 105.38 310.192 104.06C306.592 102.62 302.212 101.48 297.052 100.64C292.012 99.8 286.912 98.66 281.752 97.22C276.592 95.78 272.212 92.96 268.612 88.76C265.012 84.56 263.212 78.98 263.212 72.02C263.212 63.26 266.692 55.88 273.652 49.88C280.612 43.88 289.732 40.88 301.012 40.88C313.852 40.88 323.392 44.12 329.632 50.6C335.872 57.08 339.232 64.46 339.712 72.74H315.052C314.812 69.5 313.432 66.8 310.912 64.64C308.512 62.48 305.152 61.4 300.832 61.4C296.752 61.4 293.572 62.3 291.292 64.1C289.012 65.78 287.872 67.94 287.872 70.58C287.872 73.46 289.672 75.56 293.272 76.88C296.872 78.2 301.192 79.28 306.232 80.12C311.392 80.84 316.492 81.92 321.532 83.36C326.692 84.8 331.072 87.68 334.672 92C338.272 96.32 340.072 102.08 340.072 109.28C340.072 118.04 336.472 125.3 329.272 131.06C322.192 136.7 312.472 139.52 300.112 139.52Z" fill="#E6E6E6"/>
<path d="M183.334 127.28V174.8H157.774V43.04H181.354V54.56C187.594 45.44 197.554 40.88 211.234 40.88C224.554 40.88 235.114 45.56 242.914 54.92C250.714 64.28 254.614 76.04 254.614 90.2C254.614 104.36 250.714 116.12 242.914 125.48C235.114 134.84 224.554 139.52 211.234 139.52C204.994 139.52 199.414 138.38 194.494 136.1C189.694 133.7 185.974 130.76 183.334 127.28ZM188.914 70.94C184.714 75.98 182.614 82.4 182.614 90.2C182.614 98 184.714 104.42 188.914 109.46C193.234 114.5 198.874 117.02 205.834 117.02C212.794 117.02 218.374 114.5 222.574 109.46C226.894 104.42 229.054 98 229.054 90.2C229.054 82.4 226.894 75.98 222.574 70.94C218.374 65.9 212.794 63.38 205.834 63.38C198.874 63.38 193.234 65.9 188.914 70.94Z" fill="#E6E6E6"/>
<path d="M145.545 97.58H77.1454C77.9854 104.06 80.3854 109.04 84.3454 112.52C88.3054 115.88 93.5254 117.56 100.005 117.56C104.085 117.56 107.745 116.72 110.985 115.04C114.345 113.24 116.745 110.66 118.185 107.3H143.925C141.165 116.9 135.705 124.7 127.545 130.7C119.505 136.58 110.085 139.52 99.2854 139.52C85.3654 139.52 73.9654 134.9 65.0854 125.66C56.2054 116.42 51.7654 104.54 51.7654 90.02C51.7654 75.98 56.2054 64.28 65.0854 54.92C73.9654 45.56 85.3053 40.88 99.1053 40.88C112.905 40.88 124.125 45.56 132.765 54.92C141.525 64.16 145.905 75.86 145.905 90.02L145.545 97.58ZM98.9254 61.4C93.1654 61.4 88.4254 63.02 84.7054 66.26C80.9854 69.38 78.5854 73.7 77.5054 79.22H120.345C119.385 73.82 117.045 69.5 113.325 66.26C109.605 63.02 104.805 61.4 98.9254 61.4Z" fill="#E6E6E6"/>
<path d="M53.28 42.32V66.26C51.48 65.9 49.8 65.72 48.24 65.72C40.68 65.72 34.98 67.7 31.14 71.66C27.42 75.62 25.56 81.86 25.56 90.38V137.36H0V43.04H23.58V55.28C28.98 46.52 37.86 42.14 50.22 42.14L53.28 42.32Z" fill="#E6E6E6"/>
</g>
<defs>
<clipPath id="clip0_5863_90376">
<rect width="380.388" height="180" fill="white"/>
</clipPath>
</defs>
</svg>
