<svg width="137" height="46" viewBox="0 0 137 46" fill="none" xmlns="http://www.w3.org/2000/svg">
<path fill-rule="evenodd" clip-rule="evenodd" d="M28.5193 15.2998H8.21072e-05V20.4333H28.5193V15.2998ZM28.5192 25.5668H0V30.7002H28.5192V25.5668Z" fill="#E6E6E6"/>
<path fill-rule="evenodd" clip-rule="evenodd" d="M49.2106 10.1858V18.0025C48.2869 16.6082 46.8404 15.9111 44.8709 15.9111C42.9364 15.9111 41.4027 16.5908 40.2698 17.9502C39.1544 19.3096 38.5967 21.0002 38.5967 23.0219C38.5967 25.0436 39.1544 26.7342 40.2698 28.0936C41.4027 29.4356 42.9364 30.1066 44.8709 30.1066C46.9972 30.1066 48.5222 29.3572 49.4459 27.8583V29.7929H52.3216V10.1858H49.2106ZM48.2957 19.8848C48.9928 20.7039 49.3414 21.7496 49.3414 23.0219C49.3414 24.2767 48.9928 25.3137 48.2957 26.1329C47.6159 26.952 46.6922 27.3616 45.5245 27.3616C44.3742 27.3616 43.4505 26.952 42.7534 26.1329C42.0562 25.2963 41.7077 24.2593 41.7077 23.0219C41.7077 21.7496 42.0562 20.7039 42.7534 19.8848C43.4505 19.0656 44.3742 18.6561 45.5245 18.6561C46.6922 18.6561 47.6159 19.0656 48.2957 19.8848ZM125.738 18.7083V29.7928H122.627V18.7083H120.562V16.2247H122.627V12.6954H125.738V16.2247H128.012V18.7083H125.738ZM119.728 23.9109H109.401C109.523 24.9914 109.916 25.8542 110.578 26.499C111.24 27.1264 112.112 27.4402 113.192 27.4402C113.907 27.4402 114.552 27.2659 115.127 26.9173C115.702 26.5687 116.111 26.0982 116.355 25.5056H119.493C119.074 26.8824 118.29 27.9979 117.14 28.8519C116.007 29.6884 114.665 30.1067 113.114 30.1067C111.092 30.1067 109.454 29.4357 108.199 28.0937C106.961 26.7517 106.343 25.0524 106.343 22.9959C106.343 20.9916 106.97 19.3098 108.225 17.9503C109.48 16.5909 111.101 15.9112 113.088 15.9112C115.074 15.9112 116.678 16.5822 117.898 17.9242C119.135 19.2488 119.754 20.9219 119.754 22.9436L119.728 23.9109ZM113.088 18.447C112.112 18.447 111.301 18.7346 110.656 19.3098C110.011 19.8849 109.611 20.6517 109.454 21.6103H116.669C116.53 20.6517 116.146 19.8849 115.519 19.3098C114.891 18.7346 114.081 18.447 113.088 18.447ZM95.0243 28.7996C95.9654 29.671 97.3684 30.1067 99.2332 30.1067C101.046 30.1067 102.44 29.7059 103.416 28.9042C104.41 28.1024 104.906 27.0916 104.906 25.8716C104.906 24.8607 104.636 24.0503 104.096 23.4403C103.573 22.8303 102.928 22.4207 102.161 22.2116C101.394 21.985 100.628 21.8107 99.8607 21.6887C99.0938 21.5667 98.4403 21.3837 97.9 21.1397C97.3771 20.8957 97.1157 20.5385 97.1157 20.0679C97.1157 19.5625 97.3161 19.1703 97.717 18.8915C98.1178 18.5952 98.693 18.447 99.4424 18.447C100.192 18.447 100.767 18.6388 101.168 19.0222C101.586 19.4056 101.821 19.8675 101.874 20.4077H104.854C104.819 19.9023 104.697 19.4056 104.488 18.9176C104.296 18.4296 104 17.9503 103.599 17.4798C103.216 17.0092 102.667 16.6345 101.952 16.3556C101.255 16.0593 100.445 15.9112 99.5208 15.9112C97.9 15.9112 96.5928 16.3295 95.5994 17.166C94.6234 17.9852 94.1354 18.9873 94.1354 20.1725C94.1354 21.2007 94.3968 22.0112 94.9197 22.6037C95.46 23.1963 96.1135 23.5972 96.8804 23.8063C97.6473 23.998 98.4141 24.1549 99.181 24.2769C99.9478 24.3989 100.593 24.5906 101.116 24.852C101.656 25.096 101.926 25.4794 101.926 26.0023C101.926 26.4729 101.708 26.8476 101.272 27.1264C100.837 27.4053 100.218 27.5447 99.4162 27.5447C98.51 27.5447 97.8041 27.353 97.2987 26.9696C96.7933 26.5862 96.5231 26.0807 96.4883 25.4533H93.4818C93.569 26.8127 94.0831 27.9282 95.0243 28.7996ZM81.5416 28.0153V35.2307H78.4306V16.2249H81.3063V18.1595C82.2648 16.6606 83.7898 15.9112 85.8813 15.9112C87.8333 15.9112 89.367 16.5909 90.4824 17.9503C91.6152 19.3098 92.1817 21.0003 92.1817 23.022C92.1817 25.0437 91.6152 26.7343 90.4824 28.0937C89.367 29.4357 87.8333 30.1067 85.8813 30.1067C83.8944 30.1067 82.4478 29.4096 81.5416 28.0153ZM81.437 23.022C81.437 24.2769 81.7768 25.3139 82.4566 26.133C83.1537 26.9522 84.0861 27.3617 85.2538 27.3617C86.4041 27.3617 87.3278 26.9522 88.025 26.133C88.7221 25.2964 89.0707 24.2595 89.0707 23.022C89.0707 21.7497 88.7221 20.6953 88.025 19.8588C87.3278 19.0222 86.4041 18.6039 85.2538 18.6039C84.0861 18.6039 83.1537 19.0222 82.4566 19.8588C81.7768 20.6779 81.437 21.7323 81.437 23.022ZM64.4851 28.0414C65.7922 29.4183 67.4915 30.1067 69.5829 30.1067C71.6918 30.1067 73.3911 29.4183 74.6808 28.0414C75.9879 26.6646 76.6415 24.9915 76.6415 23.022C76.6415 21.0526 75.9879 19.3795 74.6808 18.0026C73.3911 16.6083 71.6918 15.9112 69.5829 15.9112C67.4915 15.9112 65.7922 16.6083 64.4851 18.0026C63.1954 19.3795 62.5505 21.0526 62.5505 23.022C62.5505 24.9915 63.1954 26.6646 64.4851 28.0414ZM66.7595 26.1592C66.0275 25.3574 65.6615 24.3117 65.6615 23.022C65.6615 21.7149 66.0275 20.6605 66.7595 19.8588C67.5089 19.057 68.4501 18.6562 69.5829 18.6562C70.7332 18.6562 71.6744 19.057 72.4064 19.8588C73.1558 20.6605 73.5305 21.7149 73.5305 23.022C73.5305 24.3117 73.1558 25.3574 72.4064 26.1592C71.6744 26.9609 70.7332 27.3617 69.5829 27.3617C68.4501 27.3617 67.5089 26.9609 66.7595 26.1592ZM62.2435 16.1204V19.0222C61.9995 18.9874 61.7642 18.9699 61.5376 18.9699C59.2022 18.9699 58.0345 20.2248 58.0345 22.7345V29.7931H54.9235V16.225H57.7992V18.1072C58.566 16.7652 59.8993 16.0942 61.799 16.0942L62.2435 16.1204Z" fill="#E6E6E6"/>
</svg>
